<?xml version="1.0" encoding="utf-8"?>
<!-- Generator: Adobe Illustrator 21.0.0, SVG Export Plug-In . SVG Version: 6.00 Build 0)  -->
<svg version="1.1" id="Capa_1" xmlns="http://www.w3.org/2000/svg" xmlns:xlink="http://www.w3.org/1999/xlink" x="0px" y="0px"
	 viewBox="0 0 1000 1000" style="enable-background:new 0 0 1000 1000;" xml:space="preserve">
<polygon points="699.7,0.8 699.7,67.4 633.1,67.4 633.1,134 566.6,134 566.6,200.5 500,200.5 500,267.1 433.4,267.1 433.4,333.6 
	366.9,333.6 366.9,400.2 300.3,400.2 300.3,466.7 233.8,466.7 233.8,533.3 300.3,533.3 300.3,599.8 366.9,599.8 366.9,666.4 
	433.4,666.4 433.4,732.9 500,732.9 500,799.5 566.6,799.5 566.6,866 633.1,866 633.1,932.6 699.7,932.6 699.7,999.2 766.2,999.2 
	766.2,932.6 766.2,866 766.2,799.5 766.2,732.9 699.7,732.9 699.7,666.4 633.1,666.4 633.1,599.8 566.6,599.8 566.6,533.3 
	500,533.3 500,466.7 566.6,466.7 566.6,400.2 633.1,400.2 633.1,333.6 699.7,333.6 699.7,267.1 766.2,267.1 766.2,200.5 766.2,134 
	766.2,67.4 766.2,0.8 "/>
</svg>
