<?xml version="1.0" encoding="utf-8"?>
<!-- Generator: Adobe Illustrator 21.0.0, SVG Export Plug-In . SVG Version: 6.00 Build 0)  -->
<svg version="1.1" id="Capa_1" xmlns="http://www.w3.org/2000/svg" xmlns:xlink="http://www.w3.org/1999/xlink" x="0px" y="0px"
	 viewBox="0 0 1000 1000" style="enable-background:new 0 0 1000 1000;" xml:space="preserve">
<polygon points="699.7,400.2 633.1,400.2 633.1,333.6 566.6,333.6 566.6,267.1 500,267.1 500,200.5 433.4,200.5 433.4,134 
	366.9,134 366.9,67.4 300.3,67.4 300.3,0.8 233.8,0.8 233.8,67.4 233.8,134 233.8,200.5 233.8,267.1 300.3,267.1 300.3,333.6 
	366.9,333.6 366.9,400.2 433.4,400.2 433.4,466.7 500,466.7 500,533.3 433.4,533.3 433.4,599.8 366.9,599.8 366.9,666.4 
	300.3,666.4 300.3,732.9 233.8,732.9 233.8,799.5 233.8,866 233.8,932.6 233.8,999.2 300.3,999.2 300.3,932.6 366.9,932.6 
	366.9,866 433.4,866 433.4,799.5 500,799.5 500,732.9 566.6,732.9 566.6,666.4 633.1,666.4 633.1,599.8 699.7,599.8 699.7,533.3 
	766.2,533.3 766.2,466.7 699.7,466.7 "/>
</svg>
